<?xml version="1.0" standalone="no"?><!DOCTYPE svg PUBLIC "-//W3C//DTD SVG 1.1//EN" "http://www.w3.org/Graphics/SVG/1.1/DTD/svg11.dtd"><svg t="1551092478379" class="icon" style="" viewBox="0 0 1212 1024" version="1.1" xmlns="http://www.w3.org/2000/svg" p-id="2950" xmlns:xlink="http://www.w3.org/1999/xlink" width="47.34375" height="40"><defs><style type="text/css"></style></defs><path d="M700.021726 713.073395c-18.333171-68.462888-2.90498-132.34786 46.284575-191.654917 49.18341-59.299375 116.194576-97.621756 201.045789-114.964069C917.45584 305.221016 859.847836 222.300823 774.534222 157.690758c-85.313613-64.611601-182.45607-96.913561-291.436588-96.913561-26.043426 0-52.086853 2.172206-78.124135 6.522762-26.044963 4.350556-50.864027 10.38173-74.471019 18.098131-23.600847 7.711791-46.501181 17.354603-68.685639 28.923827-22.178313 11.569223-43.391885 24.591705-63.633033 39.065908-20.241148 14.468058-39.047473 30.622879-56.418975 48.456781-17.373038 17.833902-33.280528 36.635618-47.719398 56.418975-14.437334 19.778748-27.687175 40.74038-39.755668 62.895651-12.060812 22.15527-21.950954 45.047923-29.667354 68.685639-7.711791 23.631571-13.742965 48.456781-18.093522 74.463338-4.350556 26.014238-6.528907 52.05152-6.528907 78.125671 0 52.080708 8.19109 102.697405 24.579415 151.851626 16.38218 49.152685 39.522163 93.504704 69.424558 133.0622 29.89625 39.557496 64.60392 74.019372 104.132228 103.393309 39.526772 29.375473 83.87879 52.268126 133.0622 68.679494 49.18341 16.419049 99.800106 24.610139 151.851626 24.579415 73.275845 0 141.744878-15.180861 205.396346-45.539511 63.656076-30.364795 118.131741-72.063773 163.426995-125.10615C769.919437 829.261826 719.308885 782.496417 700.021726 713.073395L700.021726 713.073395zM483.050012 731.910444c-52.082244 0-96.686202-18.560531-133.801118-55.675448-37.121062-37.121062-55.681592-81.726555-55.681592-133.807263 0-34.709206 8.436884-66.536477 25.316798-95.478738 16.88145-28.942261 40.019896-51.841059 69.424558-68.685639 29.404661-16.84458 60.986137-25.281465 94.741355-25.318334 53.040841 0 98.119489 18.560531 135.24055 55.681592 37.114917 37.116453 55.675448 81.72041 55.675448 133.801118 0 34.709206-8.436884 66.538013-25.316798 95.478738-16.88145 28.942261-40.019896 51.841059-69.424558 68.685639C549.821529 723.436691 517.763827 731.87972 483.050012 731.910444L483.050012 731.910444zM1211.995579 218.454145c-13.51407-26.997415-27.988273-51.816479-43.416464-74.463338-15.428192-22.646859-31.102177-41.207389-47.023493-55.681592-15.91978-14.474203-32.068456-27.244745-48.456781-38.322381-16.38218-11.077635-32.28967-19.514519-47.711717-25.316798-15.428192-5.802278-30.129754-10.633669-44.112369-14.486493-13.97647-3.852823-26.745476-6.031174-38.320844-6.528907-11.57076-0.491588-21.686725-0.737382-30.35865-0.737382-8.670389 0.006145-15.428192 0.479299-20.270336 1.433287l-7.218667 0L809.891711-1.5e-05c42.425607 54.9565 79.065833 107.024918 109.922217 156.208328 30.856383 49.177265 54.475665 91.128181 70.857845 125.837388 16.38218 34.715351 29.632021 65.817529 39.755668 93.306532 10.123647 27.49054 16.154821 50.874781 18.091986 70.16194 1.944846 19.28716 2.671475 33.988722 2.178351 44.106224-0.491588 10.117502-1.697516 18.560531-3.611638 25.316798-38.568175-19.285624-81.466935-22.663757-128.705498-10.1344-44.370453 12.529357-78.84001 36.148638-103.394846 70.857845-24.560981 34.709206-32.026978 69.897712-22.401064 105.567051 9.625913 35.667804 33.490989 61.946271 71.595227 78.820039 38.105774 16.875305 79.331598 19.053655 123.665182 6.522762 22.185995-6.756267 42.444041-16.640264 60.771068-29.661209 18.327026-13.022481 33.028589-27.724044 44.106224-44.106224 11.077635-16.388325 18.542096-34.217618 22.401064-53.503242 51.097531-78.094947 25.054105-216.463227-78.125671-415.107915l-52.068418-92.563005L1211.995579 218.454145zM483.050012 439.728793c-18.327026 0-35.435835 4.585597-51.324891 13.74911-15.890592 9.163513-28.432238 21.70516-37.632621 37.631084-9.192701 15.91978-13.776762 33.028589-13.741429 51.324891 0 27.951404 10.117502 52.06381 30.35865 72.340291 20.241148 20.270336 44.585523 30.387838 73.036196 30.357114 28.444528-0.029188 52.555398-10.152835 72.334146-30.357114 19.778748-20.210424 29.667354-44.328975 29.667354-72.340291 0-28.017461-9.888606-52.129867-29.667354-72.340291C536.307459 449.883163 511.961549 439.765662 483.050012 439.728793L483.050012 439.728793zM483.050012 439.728793" p-id="2951" fill="#ffffff"></path></svg>